# xmcd
#
# Track frame offsets:
#        150
#        18982
#        32907
#        46337
#        64645
#        85445
#        105677
#        113912
#        133237
#        144887
#        169150
#        185660
#        198297
#        226485
#
# Disc length: 3184 seconds
#
# Revision: 0
# Processed by: cddbd v1.5.1PL0 Copyright (c) Steve Scherf et al.
# Submitted via: ExactAudioCopy v0.95a5
#
DISCID=c20c6e0e
DTITLE=Sharon Shannon - Each Little Thing
DYEAR=1997
DGENRE=Celtic
TTITLE0=Mouth of the Tobique
TTITLE1=Kids
TTITLE2=Bonnie Mulligan
TTITLE3=Each Little Thing(Diamund's March)
TTITLE4=Bag of Cats
TTITLE5=Libertango
TTITLE6=Rathlin Island
TTITLE7=Leaving Brittany
TTITLE8=Dance of the Honey Bees
TTITLE9=Micho Russell's
TTITLE10=El Meracado Testaccio(The Statue Market)
TTITLE11=The Ivory and the Quill(Reels)
TTITLE12=The Mighty Sparrow(Live)(bonus track)
TTITLE13=Spellbound(bonus track)
EXTD=
EXTT0=
EXTT1=
EXTT2=
EXTT3=
EXTT4=
EXTT5=
EXTT6=
EXTT7=
EXTT8=
EXTT9=
EXTT10=
EXTT11=
EXTT12=
EXTT13=
PLAYORDER=
